<svg width="186" height="215" viewBox="0 0 186 215" fill="none" xmlns="http://www.w3.org/2000/svg">
<g filter="url(#filter0_dd_8217_124782)">
<path d="M10.5 90C10.5 44.4365 47.4365 7.5 93 7.5C138.563 7.5 175.5 44.4365 175.5 90V195C175.5 199.142 172.142 202.5 168 202.5H18C13.8579 202.5 10.5 199.142 10.5 195V90Z" fill="#05192D" stroke="#FCCE0D" stroke-width="5"/>
<circle cx="93" cy="87.5" r="60" stroke="url(#paint0_linear_8217_124782)" stroke-width="2.5"/>
<circle cx="93" cy="80" r="35" fill="url(#paint1_linear_8217_124782)"/>
<g filter="url(#filter1_d_8217_124782)">
<circle cx="93" cy="80" r="25" fill="white"/>
</g>
<path fill-rule="evenodd" clip-rule="evenodd" d="M93 66.668C98.0627 66.668 102.167 70.772 102.167 75.8346C102.167 78.6813 100.869 81.2248 98.8333 82.9061V91.9099C98.8333 93.0669 97.6933 93.8517 96.6334 93.4894L96.4577 93.4183L92.9966 91.7907L89.5433 93.4178C88.496 93.9109 87.2999 93.213 87.1769 92.0992L87.1666 91.9099V82.9059C85.1308 81.2246 83.8334 78.6811 83.8334 75.8346C83.8334 70.772 87.9374 66.668 93 66.668ZM90.4999 84.6562V89.2807L92.2857 88.442C92.6708 88.2607 93.108 88.2346 93.508 88.3639L93.7046 88.4414L95.4999 89.284V84.6563C94.7052 84.881 93.8667 85.0013 93 85.0013C92.1333 85.0013 91.2947 84.881 90.4999 84.6562ZM92.9999 70.0008C89.7783 70.0008 87.1666 72.6124 87.1666 75.8341C87.1666 79.0557 89.7783 81.6674 92.9999 81.6674C96.2216 81.6674 98.8333 79.0557 98.8333 75.8341C98.8333 72.6124 96.2216 70.0008 92.9999 70.0008Z" fill="#05192D"/>
<path d="M8 175H178V195C178 200.523 173.523 205 168 205H18C12.4772 205 8 200.523 8 195V175Z" fill="#FCCE0D"/>
<path d="M53.8521 194.5L49.6671 183.7H47.4921L43.2921 194.5H45.4521L46.5171 191.74H50.6271L51.6921 194.5H53.8521ZM47.6121 188.92C47.9871 187.99 48.2721 187.195 48.5571 186.325H48.5721C48.8871 187.195 49.1721 187.99 49.5321 188.92L49.9071 189.895H47.2371L47.6121 188.92ZM56.4651 190.72C56.4801 193.12 58.2951 194.59 60.4701 194.59C62.6151 194.59 64.1301 193.255 64.1301 191.335C64.1301 189.67 63.1251 188.65 61.1001 188.14L59.8701 187.825C59.0601 187.615 58.8201 187.165 58.8201 186.73C58.8201 186.145 59.3451 185.515 60.2751 185.515C61.1901 185.515 61.8201 186.175 61.8201 187.075H63.7851C63.7851 185.215 62.4651 183.61 60.3651 183.61C58.4451 183.61 56.7651 184.885 56.7651 186.715C56.7651 188.17 57.8001 189.31 59.5551 189.745L60.8151 190.06C61.6101 190.255 62.0751 190.735 62.0751 191.365C62.0751 192.01 61.5501 192.67 60.4701 192.67C59.2851 192.67 58.4901 191.965 58.4751 190.72H56.4651ZM67.1663 190.72C67.1813 193.12 68.9963 194.59 71.1713 194.59C73.3163 194.59 74.8313 193.255 74.8313 191.335C74.8313 189.67 73.8263 188.65 71.8013 188.14L70.5713 187.825C69.7613 187.615 69.5213 187.165 69.5213 186.73C69.5213 186.145 70.0463 185.515 70.9763 185.515C71.8913 185.515 72.5213 186.175 72.5213 187.075H74.4863C74.4863 185.215 73.1663 183.61 71.0663 183.61C69.1463 183.61 67.4663 184.885 67.4663 186.715C67.4663 188.17 68.5013 189.31 70.2563 189.745L71.5163 190.06C72.3113 190.255 72.7763 190.735 72.7763 191.365C72.7763 192.01 72.2513 192.67 71.1713 192.67C69.9863 192.67 69.1913 191.965 69.1763 190.72H67.1663ZM83.2974 194.59C86.3274 194.59 88.7724 192.13 88.7724 189.1C88.7724 186.07 86.3274 183.61 83.2974 183.61C80.2674 183.61 77.8374 186.07 77.8374 189.1C77.8374 192.13 80.2674 194.59 83.2974 194.59ZM83.2974 192.595C81.3624 192.595 79.8324 191.035 79.8324 189.1C79.8324 187.165 81.3624 185.605 83.2974 185.605C85.2324 185.605 86.7774 187.165 86.7774 189.1C86.7774 191.035 85.2324 192.595 83.2974 192.595ZM97.3971 194.59C100.097 194.59 101.867 192.745 102.212 190.705H100.142C99.7671 191.89 98.6571 192.595 97.3971 192.595C95.4621 192.595 93.9321 191.035 93.9321 189.1C93.9321 187.165 95.4621 185.605 97.3971 185.605C98.5971 185.605 99.7971 186.415 100.127 187.54H102.197C101.867 185.695 100.142 183.61 97.3971 183.61C94.3671 183.61 91.9371 186.07 91.9371 189.1C91.9371 192.13 94.3671 194.59 97.3971 194.59ZM105.844 183.7V194.5H107.839V183.7H105.844ZM121.677 194.5L117.492 183.7H115.317L111.117 194.5H113.277L114.342 191.74H118.452L119.517 194.5H121.677ZM115.437 188.92C115.812 187.99 116.097 187.195 116.382 186.325H116.397C116.712 187.195 116.997 187.99 117.357 188.92L117.732 189.895H115.062L115.437 188.92ZM131.32 183.7H122.83V185.695H126.07V194.5H128.065V185.695H131.32V183.7ZM134.608 183.7V194.5H142.153V192.505H136.603V190.09H141.583V188.11H136.603V185.695H142.153V183.7H134.608Z" fill="#05192D"/>
<g clip-path="url(#clip0_8217_124782)">
<path fill-rule="evenodd" clip-rule="evenodd" d="M62.6236 125.96V129.347L59.1293 131.397V123.898L62.6236 125.96ZM63.7542 133.077V130.024L68.4334 127.277L67.2952 126.607L63.7542 128.685V125.621C63.7535 125.413 63.6454 125.221 63.4703 125.117L59.2077 122.604C59.1964 122.596 59.185 122.591 59.1736 122.585C58.9204 122.458 58.6215 122.474 58.3829 122.628C58.1442 122.782 57.9995 123.051 58 123.341V131.952C57.9991 132.242 58.1437 132.512 58.3825 132.667C58.6214 132.821 58.9206 132.837 59.1742 132.711L59.2065 132.694L62.621 130.689V133.42C62.6217 133.629 62.7304 133.821 62.9062 133.926L67.2882 136.483L68.4264 135.812L63.7542 133.077Z" fill="#03EF62"/>
</g>
<path d="M78.0245 134.677C80.3084 134.677 81.9263 133.209 82.3749 131.319H80.8794C80.4444 132.529 79.316 133.263 78.0245 133.263C76.0531 133.263 74.5305 131.673 74.5305 129.701C74.5305 127.73 76.0531 126.139 78.0245 126.139C79.2072 126.139 80.4716 126.942 80.8387 128.07H82.3341C81.9263 126.303 80.2541 124.726 78.0245 124.726C75.2782 124.726 73.1166 126.955 73.1166 129.701C73.1166 132.448 75.2782 134.677 78.0245 134.677Z" fill="white"/>
<path d="M90.0663 131.523C90.0799 131.374 90.0935 131.197 90.0935 131.007C90.0935 129.09 88.7068 127.499 86.8306 127.499C84.9001 127.499 83.4726 129.09 83.4726 131.088C83.4726 133.127 84.8729 134.677 86.8986 134.677C89.0603 134.677 89.8624 133.019 89.9711 132.352H88.5165C88.3805 132.76 87.8775 133.399 86.8986 133.399C85.7022 133.399 85.0497 132.57 84.9273 131.523H90.0663ZM86.8306 128.777C87.8775 128.777 88.5029 129.525 88.6524 130.463H84.9681C85.1448 129.511 85.7838 128.777 86.8306 128.777Z" fill="white"/>
<path d="M94.8703 127.499C94.0138 127.499 93.3748 127.893 93.0078 128.505V127.581H91.5939V134.596H93.0078V130.83C93.0078 129.484 93.7555 128.886 94.8159 128.886C95.1286 128.886 95.3869 128.926 95.5501 128.954V127.54C95.3869 127.526 95.1966 127.499 94.8703 127.499Z" fill="white"/>
<path d="M99.5309 133.359C99.0143 133.359 98.6744 133.127 98.6744 132.543V128.818H100.469V127.581H98.6744V125.596H97.2605V127.581H96.0641V128.818H97.2605V132.57C97.2605 133.998 98.0354 134.677 99.2726 134.677C99.762 134.677 100.224 134.514 100.469 134.419V133.1C100.292 133.182 99.898 133.359 99.5309 133.359Z" fill="white"/>
<path d="M102.63 126.588C103.201 126.588 103.677 126.139 103.677 125.568C103.677 124.997 103.215 124.549 102.63 124.549C102.059 124.549 101.611 124.997 101.611 125.568C101.611 126.139 102.059 126.588 102.63 126.588ZM103.324 127.581H101.91V134.596H103.324V127.581Z" fill="white"/>
<path d="M107.319 127.581V126.928C107.319 126.33 107.727 126.058 108.23 126.058C108.57 126.058 108.882 126.139 109.073 126.221V124.916C108.855 124.834 108.379 124.726 107.849 124.726C106.653 124.726 105.905 125.623 105.905 126.901V127.581H104.776V128.818H105.905V134.596H107.319V128.818H109.127V127.581H107.319Z" fill="white"/>
<path d="M111.154 126.588C111.725 126.588 112.201 126.139 112.201 125.568C112.201 124.997 111.738 124.549 111.154 124.549C110.583 124.549 110.134 124.997 110.134 125.568C110.134 126.139 110.583 126.588 111.154 126.588ZM111.847 127.581H110.433V134.596H111.847V127.581Z" fill="white"/>
<path d="M120.045 131.523C120.058 131.374 120.072 131.197 120.072 131.007C120.072 129.09 118.685 127.499 116.809 127.499C114.879 127.499 113.451 129.09 113.451 131.088C113.451 133.127 114.851 134.677 116.877 134.677C119.039 134.677 119.841 133.019 119.95 132.352H118.495C118.359 132.76 117.856 133.399 116.877 133.399C115.681 133.399 115.028 132.57 114.906 131.523H120.045ZM116.809 128.777C117.856 128.777 118.481 129.525 118.631 130.463H114.947C115.123 129.511 115.762 128.777 116.809 128.777Z" fill="white"/>
<path d="M126.586 124.807V128.655C126.138 127.988 125.322 127.499 124.37 127.499C122.725 127.499 121.298 129.022 121.298 131.088C121.298 133.155 122.725 134.677 124.37 134.677C125.322 134.677 126.083 134.31 126.586 133.522V134.596H128V124.807H126.586ZM124.696 133.304C123.541 133.304 122.712 132.312 122.712 131.088C122.712 129.865 123.541 128.886 124.696 128.886C125.852 128.886 126.586 129.865 126.586 131.088C126.586 132.312 125.852 133.304 124.696 133.304Z" fill="white"/>
<path d="M27.5371 144.327V158.727H33.1571C37.0971 158.727 40.3571 155.587 40.3571 151.527C40.3571 147.467 37.0771 144.327 33.1571 144.327H27.5371ZM30.1971 156.067V146.987H33.1571C35.6571 146.987 37.6971 149.027 37.6971 151.527C37.6971 154.027 35.6571 156.067 33.1571 156.067H30.1971ZM49.1995 149.727C48.4395 148.847 47.3795 148.287 46.1795 148.287C43.7195 148.287 41.7595 150.647 41.7595 153.567C41.7595 156.487 43.7195 158.847 46.1795 158.847C47.3795 158.847 48.4195 158.287 49.1995 157.407V158.727H51.8595V148.407H49.1995V149.727ZM46.8195 156.207C45.4795 156.207 44.3995 155.027 44.3995 153.567C44.3995 152.107 45.4795 150.947 46.8195 150.947C48.1595 150.947 49.1995 152.107 49.1995 153.567C49.1995 155.027 48.1595 156.207 46.8195 156.207ZM59.2046 156.407C58.4646 156.407 57.9446 156.107 57.9446 155.307V150.727H60.3846V148.407H57.9446V145.467H55.2846V148.407H53.6046V150.727H55.2846V155.367C55.2846 157.787 56.5646 158.847 58.6046 158.847C59.1846 158.847 59.8246 158.727 60.3846 158.567V156.207C60.0246 156.307 59.6046 156.407 59.2046 156.407ZM69.0237 149.727C68.2637 148.847 67.2037 148.287 66.0037 148.287C63.5437 148.287 61.5837 150.647 61.5837 153.567C61.5837 156.487 63.5437 158.847 66.0037 158.847C67.2037 158.847 68.2437 158.287 69.0237 157.407V158.727H71.6837V148.407H69.0237V149.727ZM66.6437 156.207C65.3037 156.207 64.2237 155.027 64.2237 153.567C64.2237 152.107 65.3037 150.947 66.6437 150.947C67.9837 150.947 69.0237 152.107 69.0237 153.567C69.0237 155.027 67.9837 156.207 66.6437 156.207ZM79.7282 153.687C79.7482 156.887 82.1682 158.847 85.0682 158.847C87.9282 158.847 89.9482 157.067 89.9482 154.507C89.9482 152.287 88.6082 150.927 85.9082 150.247L84.2682 149.827C83.1882 149.547 82.8682 148.947 82.8682 148.367C82.8682 147.587 83.5682 146.747 84.8082 146.747C86.0282 146.747 86.8682 147.627 86.8682 148.827H89.4882C89.4882 146.347 87.7282 144.207 84.9282 144.207C82.3682 144.207 80.1282 145.907 80.1282 148.347C80.1282 150.287 81.5082 151.807 83.8482 152.387L85.5282 152.807C86.5882 153.067 87.2082 153.707 87.2082 154.547C87.2082 155.407 86.5082 156.287 85.0682 156.287C83.4882 156.287 82.4282 155.347 82.4082 153.687H79.7282ZM101.21 152.247C101.09 150.627 99.5498 148.287 96.4498 148.287C93.6098 148.287 91.3298 150.647 91.3298 153.567C91.3298 156.487 93.6098 158.847 96.4498 158.847C99.2498 158.847 101.09 156.407 101.17 154.887H98.5298C98.3498 155.687 97.4698 156.327 96.4498 156.327C94.9698 156.327 93.9698 155.007 93.9698 153.567C93.9698 152.127 94.8898 150.807 96.4498 150.807C97.3898 150.807 98.2498 151.367 98.5098 152.247H101.21ZM104.596 147.267C105.556 147.267 106.416 146.467 106.416 145.467C106.416 144.487 105.596 143.707 104.596 143.707C103.596 143.707 102.816 144.487 102.816 145.467C102.816 146.467 103.596 147.267 104.596 147.267ZM105.916 148.407H103.256V158.727H105.916V148.407ZM117.811 154.307C117.831 154.127 117.851 153.827 117.851 153.527C117.851 150.647 115.731 148.287 113.051 148.287C110.211 148.287 107.951 150.587 107.951 153.567C107.951 156.607 110.151 158.847 113.131 158.847C116.431 158.847 117.551 156.247 117.671 155.347H115.011C114.811 155.907 114.171 156.507 113.131 156.507C111.591 156.507 110.871 155.527 110.711 154.307H117.811ZM113.051 150.627C114.251 150.627 114.931 151.427 115.151 152.527H110.791C111.031 151.427 111.791 150.627 113.051 150.627ZM125.259 148.287C124.079 148.287 122.999 148.847 122.399 149.767V148.407H119.819V158.727H122.479V152.987C122.479 151.767 123.339 150.947 124.439 150.947C125.519 150.947 126.379 151.747 126.379 152.967V158.727H129.039V152.647C129.039 149.687 127.559 148.287 125.259 148.287ZM135.865 156.407C135.125 156.407 134.605 156.107 134.605 155.307V150.727H137.045V148.407H134.605V145.467H131.945V148.407H130.265V150.727H131.945V155.367C131.945 157.787 133.225 158.847 135.265 158.847C135.845 158.847 136.485 158.727 137.045 158.567V156.207C136.685 156.307 136.265 156.407 135.865 156.407ZM140.377 147.267C141.337 147.267 142.197 146.467 142.197 145.467C142.197 144.487 141.377 143.707 140.377 143.707C139.377 143.707 138.597 144.487 138.597 145.467C138.597 146.467 139.377 147.267 140.377 147.267ZM141.697 148.407H139.037V158.727H141.697V148.407ZM143.728 155.247C143.748 156.927 145.148 158.847 147.788 158.847C150.048 158.847 151.748 157.607 151.788 155.487C151.828 154.027 150.808 152.887 148.788 152.427L147.388 152.107C146.868 151.987 146.608 151.727 146.608 151.307C146.608 150.787 147.068 150.407 147.808 150.407C148.548 150.407 149.088 150.927 149.108 151.667H151.468C151.468 150.007 150.048 148.287 147.828 148.287C145.588 148.287 143.988 149.547 143.988 151.347C143.988 152.827 144.768 153.927 146.708 154.407L147.968 154.707C148.768 154.907 149.168 155.147 149.168 155.667C149.168 156.227 148.608 156.567 147.908 156.567C147.088 156.567 146.408 156.087 146.388 155.247H143.728ZM158.111 156.407C157.371 156.407 156.851 156.107 156.851 155.307V150.727H159.291V148.407H156.851V145.467H154.191V148.407H152.511V150.727H154.191V155.367C154.191 157.787 155.471 158.847 157.511 158.847C158.091 158.847 158.731 158.727 159.291 158.567V156.207C158.931 156.307 158.511 156.407 158.111 156.407Z" fill="white"/>
</g>
<defs>
<filter id="filter0_dd_8217_124782" x="0.5" y="0" width="185" height="215" filterUnits="userSpaceOnUse" color-interpolation-filters="sRGB">
<feFlood flood-opacity="0" result="BackgroundImageFix"/>
<feColorMatrix in="SourceAlpha" type="matrix" values="0 0 0 0 0 0 0 0 0 0 0 0 0 0 0 0 0 0 127 0" result="hardAlpha"/>
<feMorphology radius="2.5" operator="erode" in="SourceAlpha" result="effect1_dropShadow_8217_124782"/>
<feOffset dy="2.5"/>
<feGaussianBlur stdDeviation="5"/>
<feColorMatrix type="matrix" values="0 0 0 0 0.0196078 0 0 0 0 0.0980392 0 0 0 0 0.176471 0 0 0 0.3 0"/>
<feBlend mode="normal" in2="BackgroundImageFix" result="effect1_dropShadow_8217_124782"/>
<feColorMatrix in="SourceAlpha" type="matrix" values="0 0 0 0 0 0 0 0 0 0 0 0 0 0 0 0 0 0 127 0" result="hardAlpha"/>
<feOffset/>
<feGaussianBlur stdDeviation="1.25"/>
<feColorMatrix type="matrix" values="0 0 0 0 0.0196078 0 0 0 0 0.0980392 0 0 0 0 0.176471 0 0 0 0.3 0"/>
<feBlend mode="normal" in2="effect1_dropShadow_8217_124782" result="effect2_dropShadow_8217_124782"/>
<feBlend mode="normal" in="SourceGraphic" in2="effect2_dropShadow_8217_124782" result="shape"/>
</filter>
<filter id="filter1_d_8217_124782" x="24.8901" y="46.378" width="136.22" height="136.22" filterUnits="userSpaceOnUse" color-interpolation-filters="sRGB">
<feFlood flood-opacity="0" result="BackgroundImageFix"/>
<feColorMatrix in="SourceAlpha" type="matrix" values="0 0 0 0 0 0 0 0 0 0 0 0 0 0 0 0 0 0 127 0" result="hardAlpha"/>
<feOffset dy="34.4879"/>
<feGaussianBlur stdDeviation="21.555"/>
<feComposite in2="hardAlpha" operator="out"/>
<feColorMatrix type="matrix" values="0 0 0 0 0 0 0 0 0 0.0313726 0 0 0 0 0.12549 0 0 0 1 0"/>
<feBlend mode="normal" in2="BackgroundImageFix" result="effect1_dropShadow_8217_124782"/>
<feBlend mode="normal" in="SourceGraphic" in2="effect1_dropShadow_8217_124782" result="shape"/>
</filter>
<linearGradient id="paint0_linear_8217_124782" x1="93" y1="27.5" x2="93" y2="113.75" gradientUnits="userSpaceOnUse">
<stop stop-color="white" stop-opacity="0.24"/>
<stop offset="1" stop-color="#05192D"/>
</linearGradient>
<linearGradient id="paint1_linear_8217_124782" x1="93" y1="45" x2="93" y2="115" gradientUnits="userSpaceOnUse">
<stop stop-color="white" stop-opacity="0.24"/>
<stop offset="1" stop-color="white" stop-opacity="0"/>
</linearGradient>
<clipPath id="clip0_8217_124782">
<rect width="10.6705" height="14.2273" fill="white" transform="translate(58 122.5)"/>
</clipPath>
</defs>
</svg>
